<svg xmlns="http://www.w3.org/2000/svg">
  <defs>
    <symbol viewbox="0 0 89 23" id="open-ai">
      <path d="M9.456.117C4.255.117 0 4.178 0 9.141s4.255 9.023 9.456 9.023 9.456-4.035 9.456-9.023S14.684.117 9.456.117zm0 14.813c-3.231 0-5.831-2.532-5.831-5.79s2.6-5.79 5.831-5.79 5.831 2.531 5.831 5.79-2.601 5.79-5.831 5.79zm19.017-9.8c-1.707 0-3.362.652-4.229 1.754V5.381H20.83v17.545h3.415v-6.341c.867 1.028 2.469 1.579 4.229 1.579 3.677 0 6.567-2.757 6.567-6.517s-2.89-6.517-6.568-6.517zm-.578 10.201c-1.944 0-3.677-1.454-3.677-3.684s1.734-3.684 3.677-3.684 3.677 1.454 3.677 3.684-1.733 3.684-3.677 3.684zM43.079 5.13c-3.73 0-6.672 2.782-6.672 6.517s2.574 6.517 6.777 6.517c3.441 0 5.648-1.98 6.331-4.211h-3.336c-.42.927-1.602 1.579-3.021 1.579-1.76 0-3.1-1.178-3.415-2.857h9.929v-1.278c0-3.409-2.495-6.266-6.593-6.266zm-3.31 5.238c.368-1.579 1.734-2.607 3.389-2.607 1.76 0 3.099 1.103 3.257 2.607h-6.646zM58.76 5.13c-1.523 0-3.126.652-3.861 1.729V5.381h-3.415v12.532h3.415v-6.742c0-1.955 1.103-3.233 2.889-3.233 1.655 0 2.548 1.203 2.548 2.882v7.093h3.415v-7.619c0-3.108-1.996-5.163-4.991-5.163zM72.497.369l-7.434 17.545h3.651l1.576-3.835h8.458l1.576 3.835h3.704L76.647.369h-4.15zm-1.024 10.803l3.047-7.344 3.021 7.344h-6.068zM88.888.369H85.42v17.545h3.467V.369z"/>
    </symbol>
    <symbol viewbox="0 0 88 30" id="google">
      <path d="M37.449 15.385c0 4.164-3.232 7.233-7.199 7.233s-7.198-3.068-7.198-7.233c0-4.193 3.232-7.233 7.198-7.233s7.199 3.039 7.199 7.233zm-3.151 0c0-2.602-1.873-4.383-4.047-4.383s-4.047 1.781-4.047 4.383c0 2.576 1.873 4.383 4.047 4.383s4.047-1.81 4.047-4.383zm18.681 0c0 4.164-3.232 7.233-7.199 7.233s-7.199-3.068-7.199-7.233c0-4.19 3.232-7.233 7.199-7.233s7.199 3.039 7.199 7.233zm-3.151 0c0-2.602-1.873-4.383-4.047-4.383s-4.047 1.781-4.047 4.383c0 2.576 1.873 4.383 4.047 4.383s4.047-1.81 4.047-4.383zm18.034-6.796v12.985c0 5.341-3.125 7.523-6.82 7.523-3.478 0-5.571-2.345-6.361-4.262l2.744-1.151c.489 1.177 1.686 2.566 3.614 2.566 2.365 0 3.831-1.471 3.831-4.239v-1.04h-.11c-.705.877-2.064 1.643-3.779 1.643-3.588 0-6.875-3.15-6.875-7.203 0-4.083 3.287-7.259 6.875-7.259 1.712 0 3.07.766 3.779 1.617h.11V8.592h2.993v-.003zm-2.769 6.822c0-2.547-1.686-4.409-3.831-4.409-2.174 0-3.996 1.862-3.996 4.409 0 2.521 1.822 4.357 3.996 4.357 2.145 0 3.831-1.836 3.831-4.357zM72.794.978v21.196h-3.074V.978h3.074zm11.977 16.787l2.446 1.643c-.789 1.177-2.692 3.205-5.979 3.205-4.076 0-7.121-3.176-7.121-7.233 0-4.301 3.07-7.233 6.768-7.233 3.724 0 5.545 2.987 6.141 4.601l.327.822-9.593 4.004c.734 1.451 1.877 2.191 3.478 2.191s2.718-.796 3.533-2.002zm-7.528-2.602l6.412-2.684c-.353-.903-1.414-1.533-2.663-1.533-1.602 0-3.831 1.425-3.75 4.216zm-65.825-1.66v-3.068h10.259c.1.535.152 1.167.152 1.852 0 2.302-.625 5.149-2.637 7.177-1.957 2.054-4.458 3.15-7.771 3.15-6.141 0-11.304-5.041-11.304-11.23S5.28.153 11.421.153c3.397 0 5.817 1.343 7.635 3.095l-2.148 2.165c-1.304-1.233-3.07-2.191-5.49-2.191-4.484 0-7.991 3.642-7.991 8.162s3.507 8.162 7.991 8.162c2.909 0 4.565-1.177 5.626-2.247.86-.867 1.427-2.106 1.65-3.799l-7.276.003z"/>
    </symbol>
    <symbol viewbox="0 0 143 16" id="anthropic">
      <path d="M29.016 11.099L22.056.27H18.3v15.47h3.204V4.911l6.96 10.829h3.756V.27h-3.204v10.829z M34.87 3.254h5.193V15.74h3.315V3.254h5.193V.27h-13.7v2.984z M61.836 6.436h-7.291V.27H51.23v15.47h3.314V9.419h7.291v6.321h3.314V.27h-3.314v6.166z M72.555 3.254h4.089c1.636 0 2.497.597 2.497 1.724s-.862 1.724-2.497 1.724h-4.089V3.254zm9.901 1.724c0-2.917-2.144-4.707-5.658-4.707H69.24v15.47h3.315V9.685h3.691l3.315 6.055h3.669l-3.671-6.517c1.843-.708 2.897-2.2 2.897-4.246z M92.612 12.906c-2.607 0-4.198-1.856-4.198-4.884 0-3.072 1.591-4.928 4.198-4.928 2.585 0 4.153 1.856 4.153 4.928 0 3.028-1.569 4.884-4.153 4.884zm0-12.906C88.15 0 84.99 3.315 84.99 8.022c0 4.663 3.159 7.978 7.622 7.978 4.441 0 7.578-3.315 7.578-7.978C100.19 3.315 97.053 0 92.612 0z M110.696 7.143h-4.09v-3.89h4.09c1.636 0 2.498.663 2.498 1.945s-.862 1.945-2.498 1.945zm.155-6.873h-7.561v15.47h3.316v-5.613h4.245c3.515 0 5.659-1.856 5.659-4.928S114.366.27 110.851.27z M138.955 10.541c-.575 1.503-1.724 2.365-3.292 2.365-2.607 0-4.198-1.856-4.198-4.884 0-3.072 1.591-4.928 4.198-4.928 1.568 0 2.717.862 3.292 2.365h3.513C141.606 2.144 139.021 0 135.663 0c-4.463 0-7.623 3.315-7.623 8.022 0 4.663 3.16 7.978 7.623 7.978 3.38 0 5.965-2.166 6.827-5.459h-3.535z M117.83.27l6.168 15.47h3.382L121.212.27h-3.382z M5.825 9.618l2.11-5.437 2.11 5.437H5.825zM6.167.27L0 15.74h3.448l1.261-3.249h6.452l1.261 3.249h3.448L9.703.27H6.167z"/>
    </symbol>
    <symbol viewbox="0 0 20 20" id="arrow-top-right">
      <path d="M.293 17.417a1 1 0 1 0 1.414 1.414L1 18.124zM19.123 1a1 1 0 0 0-1-1h-9a1 1 0 0 0 0 2h8v8a1 1 0 1 0 2 0zM1 18.124l.707.707L18.831 1.707 18.124 1l-.707-.707L.293 17.417z"/>
    </symbol> 
    <symbol viewbox="0 0 121 19" id="underline">
      <path pathLength="1" d="M1.50049 16.6582C18.5005 10.9915 65.9005 0.0581672 119.5 1.65817" />
    </symbol>
  </defs>
</svg>